<?xml version="1.0" encoding="utf-8"?>
<svg viewBox="190.1005 90.9907 119.7989 120.6677" xmlns="http://www.w3.org/2000/svg">
  <g id="g3432" transform="matrix(0.7759759426116943, 0, 0, 0.7759759426116943, -963.19775390625, -1654.3356323242188)">
    <path transform="matrix(0.9672595,0,0,0.9672595,235.69886,548.04605)" d="m 1332.2546,1792.4095 a 7.3256478,7.3256478 0 0 1 -7.3256,7.3257 7.3256478,7.3256478 0 0 1 -7.3257,-7.3257 7.3256478,7.3256478 0 0 1 7.3257,-7.3256 7.3256478,7.3256478 0 0 1 7.3256,7.3256 z" id="path3434" style="opacity: 0.99; fill-opacity: 1; stroke: none; fill: rgb(126, 184, 255);"/>
    <path style="opacity: 0.99; fill-opacity: 1; stroke: none; fill: rgb(126, 184, 255);" id="path3436" d="m 1332.2546,1792.4095 a 7.3256478,7.3256478 0 0 1 -7.3256,7.3257 7.3256478,7.3256478 0 0 1 -7.3257,-7.3257 7.3256478,7.3256478 0 0 1 7.3257,-7.3256 7.3256478,7.3256478 0 0 1 7.3256,7.3256 z" transform="matrix(0.9672595,0,0,0.9672595,308.74604,539.35166)"/>
    <path transform="matrix(1.2053547,0,0,1.2053547,-25.196551,182.19849)" d="m 1332.2546,1792.4095 a 7.3256478,7.3256478 0 0 1 -7.3256,7.3257 7.3256478,7.3256478 0 0 1 -7.3257,-7.3257 7.3256478,7.3256478 0 0 1 7.3257,-7.3256 7.3256478,7.3256478 0 0 1 7.3256,7.3256 z" id="path3438" style="opacity: 0.99; fill-opacity: 1; stroke: none; fill: rgb(126, 184, 255);"/>
    <path transform="matrix(0.7953719,0,0,0.7953719,449.34462,925.45441)" d="m 1332.2546,1792.4095 a 7.3256478,7.3256478 0 0 1 -7.3256,7.3257 7.3256478,7.3256478 0 0 1 -7.3257,-7.3257 7.3256478,7.3256478 0 0 1 7.3257,-7.3256 7.3256478,7.3256478 0 0 1 7.3256,7.3256 z" id="path3440" style="opacity: 0.99; fill-opacity: 1; stroke: none; fill: rgb(126, 184, 255);"/>
    <path style="opacity: 0.99; fill-opacity: 1; stroke: none; fill: rgb(126, 184, 255);" id="path3442" d="m 1332.2546,1792.4095 a 7.3256478,7.3256478 0 0 1 -7.3256,7.3257 7.3256478,7.3256478 0 0 1 -7.3257,-7.3257 7.3256478,7.3256478 0 0 1 7.3257,-7.3256 7.3256478,7.3256478 0 0 1 7.3256,7.3256 z" transform="matrix(0.7953719,0,0,0.7953719,499.30379,973.24771)"/>
    <path transform="matrix(0.7953719,0,0,0.7953719,556.29908,956.69427)" d="m 1332.2546,1792.4095 a 7.3256478,7.3256478 0 0 1 -7.3256,7.3257 7.3256478,7.3256478 0 0 1 -7.3257,-7.3257 7.3256478,7.3256478 0 0 1 7.3257,-7.3256 7.3256478,7.3256478 0 0 1 7.3256,7.3256 z" id="path3444" style="opacity: 0.99; fill-opacity: 1; stroke: none; fill: rgb(126, 184, 255);"/>
    <path style="opacity: 0.99; fill-opacity: 1; stroke: none; fill: rgb(126, 184, 255);" id="path3446" d="m 1332.2546,1792.4095 a 7.3256478,7.3256478 0 0 1 -7.3256,7.3257 7.3256478,7.3256478 0 0 1 -7.3257,-7.3257 7.3256478,7.3256478 0 0 1 7.3257,-7.3256 7.3256478,7.3256478 0 0 1 7.3256,7.3256 z" transform="matrix(0.7953719,0,0,0.7953719,581.00221,902.90894)"/>
    <path transform="matrix(0.6234843,0,0,0.6234843,800.65848,1180.6657)" d="m 1332.2546,1792.4095 a 7.3256478,7.3256478 0 0 1 -7.3256,7.3257 7.3256478,7.3256478 0 0 1 -7.3257,-7.3257 7.3256478,7.3256478 0 0 1 7.3257,-7.3256 7.3256478,7.3256478 0 0 1 7.3256,7.3256 z" id="path3448" style="opacity: 0.99; fill-opacity: 1; stroke: none; fill: rgb(126, 184, 255);"/>
    <path style="opacity: 0.99; fill-opacity: 1; stroke: none; fill: rgb(126, 184, 255);" id="path3450" d="m 1332.2546,1792.4095 a 7.3256478,7.3256478 0 0 1 -7.3256,7.3257 7.3256478,7.3256478 0 0 1 -7.3257,-7.3257 7.3256478,7.3256478 0 0 1 7.3257,-7.3256 7.3256478,7.3256478 0 0 1 7.3256,7.3256 z" transform="matrix(0.6234843,0,0,0.6234843,766.33259,1139.9519)"/>
    <path transform="matrix(0.6234843,0,0,0.6234843,664.75027,1230.1938)" d="m 1332.2546,1792.4095 a 7.3256478,7.3256478 0 0 1 -7.3256,7.3257 7.3256478,7.3256478 0 0 1 -7.3257,-7.3257 7.3256478,7.3256478 0 0 1 7.3257,-7.3256 7.3256478,7.3256478 0 0 1 7.3256,7.3256 z" id="path3454" style="opacity: 0.99; fill-opacity: 1; stroke: none; fill: rgb(126, 184, 255);"/>
    <path style="opacity: 0.99; fill-opacity: 1; stroke: none; fill: rgb(126, 184, 255);" id="path3456" d="m 1332.2546,1792.4095 a 7.3256478,7.3256478 0 0 1 -7.3256,7.3257 7.3256478,7.3256478 0 0 1 -7.3257,-7.3257 7.3256478,7.3256478 0 0 1 7.3257,-7.3256 7.3256478,7.3256478 0 0 1 7.3256,7.3256 z" transform="matrix(0.6234843,0,0,0.6234843,701.58781,1267.5497)"/>
    <path style="opacity: 0.99; fill-opacity: 1; stroke: none; fill: rgb(126, 184, 255);" id="path3458" d="m 1332.2546,1792.4095 a 7.3256478,7.3256478 0 0 1 -7.3256,7.3257 7.3256478,7.3256478 0 0 1 -7.3257,-7.3257 7.3256478,7.3256478 0 0 1 7.3257,-7.3256 7.3256478,7.3256478 0 0 1 7.3256,7.3256 z" transform="matrix(0.7953719,0,0,0.7953719,440.41431,869.81028)"/>
    <path transform="matrix(0.7953719,0,0,0.7953719,484.50773,829.39633)" d="m 1332.2546,1792.4095 a 7.3256478,7.3256478 0 0 1 -7.3256,7.3257 7.3256478,7.3256478 0 0 1 -7.3257,-7.3257 7.3256478,7.3256478 0 0 1 7.3257,-7.3256 7.3256478,7.3256478 0 0 1 7.3256,7.3256 z" id="path3460" style="opacity: 0.99; fill-opacity: 1; stroke: none; fill: rgb(126, 184, 255);"/>
    <path transform="matrix(0.6234843,0,0,0.6234843,699.00639,1196.6154)" d="m 1332.2546,1792.4095 a 7.3256478,7.3256478 0 0 1 -7.3256,7.3257 7.3256478,7.3256478 0 0 1 -7.3257,-7.3257 7.3256478,7.3256478 0 0 1 7.3257,-7.3256 7.3256478,7.3256478 0 0 1 7.3256,7.3256 z" id="path3462" style="opacity: 0.99; fill-opacity: 1; stroke: none; fill: rgb(126, 184, 255);"/>
    <path style="opacity: 0.99; fill-opacity: 1; stroke: none; fill: rgb(126, 184, 255);" id="path3464" d="m 1332.2546,1792.4095 a 7.3256478,7.3256478 0 0 1 -7.3256,7.3257 7.3256478,7.3256478 0 0 1 -7.3257,-7.3257 7.3256478,7.3256478 0 0 1 7.3257,-7.3256 7.3256478,7.3256478 0 0 1 7.3256,7.3256 z" transform="matrix(0.6234843,0,0,0.6234843,749.0301,1256.3969)"/>
    <path id="path3468" d="m 1590.0065,2271.6035 -18.6281,72.6731" style="stroke-width: 8; stroke-linecap: butt; stroke-linejoin: miter; stroke-miterlimit: 4; stroke-opacity: 1; stroke-dasharray: none; fill: rgb(126, 184, 255); stroke: rgb(126, 184, 255);"/>
    <path id="path3470" d="m 1589.0995,2273.5223 -72.5588,8.4545" style="stroke-width: 8; stroke-linecap: butt; stroke-linejoin: miter; stroke-miterlimit: 4; stroke-opacity: 1; stroke-dasharray: none; fill: rgb(126, 184, 255); stroke: rgb(126, 184, 255);"/>
    <path id="path3472" d="m 1571.3087,2343.4372 -54.6982,-61.8801" style="stroke-width: 8; stroke-linecap: butt; stroke-linejoin: miter; stroke-miterlimit: 4; stroke-opacity: 1; stroke-dasharray: none; fill: rgb(126, 184, 255); stroke: rgb(126, 184, 255);"/>
    <path id="path3474" d="m 1571.3087,2343.8569 -18.07,55.944" style="stroke-width: 6; stroke-linecap: butt; stroke-linejoin: miter; stroke-miterlimit: 4; stroke-opacity: 1; stroke-dasharray: none; fill: rgb(126, 184, 255); stroke: rgb(126, 184, 255);"/>
    <path id="path3476" d="m 1516.4012,2281.3172 21.0002,-24.3443" style="stroke-width: 4; stroke-linecap: butt; stroke-linejoin: miter; stroke-miterlimit: 4; stroke-opacity: 1; stroke-dasharray: none; fill: rgb(126, 184, 255); stroke: rgb(126, 184, 255);"/>
    <path id="path3478" d="m 1493.9359,2295.4681 21.7676,-14.3307" style="stroke-width: 4; stroke-linecap: butt; stroke-linejoin: miter; stroke-miterlimit: 4; stroke-opacity: 1; stroke-dasharray: none; fill: rgb(126, 184, 255); stroke: rgb(126, 184, 255);"/>
    <path id="path3480" d="m 1503.0057,2350.6326 13.3955,-69.9749" style="stroke-width: 4; stroke-linecap: butt; stroke-linejoin: miter; stroke-miterlimit: 4; stroke-opacity: 1; stroke-dasharray: none; fill: rgb(126, 184, 255); stroke: rgb(126, 184, 255);"/>
    <path id="path3482" d="m 1552.1922,2398.5417 -49.5353,-46.59" style="stroke-width: 6; stroke-linecap: butt; stroke-linejoin: miter; stroke-miterlimit: 4; stroke-opacity: 1; stroke-dasharray: none; fill: rgb(126, 184, 255); stroke: rgb(126, 184, 255);"/>
    <path id="path3484" d="m 1610.0997,2381.3328 -58.1168,16.969" style="stroke-width: 6; stroke-linecap: butt; stroke-linejoin: miter; stroke-miterlimit: 4; stroke-opacity: 1; stroke-dasharray: none; fill: rgb(126, 184, 255); stroke: rgb(126, 184, 255);"/>
    <path id="path3486" d="m 1634.2395,2328.3869 -24.1398,53.1257" style="stroke-width: 6; stroke-linecap: butt; stroke-linejoin: miter; stroke-miterlimit: 4; stroke-opacity: 1; stroke-dasharray: none; fill: rgb(126, 184, 255); stroke: rgb(126, 184, 255);"/>
    <path id="path3488" d="m 1570.5412,2343.4372 62.8611,-14.6306" style="stroke-width: 6; stroke-linecap: butt; stroke-linejoin: miter; stroke-miterlimit: 4; stroke-opacity: 1; stroke-dasharray: none; fill: rgb(126, 184, 255); stroke: rgb(126, 184, 255);"/>
    <path id="path3491" d="m 1590.1461,2273.0426 43.1166,55.1644" style="stroke-width: 6; stroke-linecap: butt; stroke-linejoin: miter; stroke-miterlimit: 4; stroke-opacity: 1; stroke-dasharray: none; fill: rgb(126, 184, 255); stroke: rgb(126, 184, 255);"/>
    <path id="path3493" d="m 1501.7987,2350.6326 66.9774,-7.1954" style="stroke-width: 6; stroke-linecap: butt; stroke-linejoin: miter; stroke-miterlimit: 4; stroke-opacity: 1; stroke-dasharray: none; fill: rgb(126, 184, 255); stroke: rgb(126, 184, 255);"/>
    <path id="path3495" d="m 1551.4038,2398.062 -24.4188,-13.1316" style="stroke-width: 4; stroke-linecap: butt; stroke-linejoin: miter; stroke-miterlimit: 4; stroke-opacity: 1; stroke-dasharray: none; fill: rgb(126, 184, 255); stroke: rgb(126, 184, 255);"/>
    <path id="path3497" d="m 1489.38,2347.2747 36.3492,37.296" style="stroke-width: 4; stroke-linecap: butt; stroke-linejoin: miter; stroke-miterlimit: 4; stroke-opacity: 1; stroke-dasharray: none; fill: rgb(126, 184, 255); stroke: rgb(126, 184, 255);"/>
    <path id="path3499" d="m 1493.2173,2295.9478 -2.721,51.3269" style="stroke-width: 4; stroke-linecap: butt; stroke-linejoin: miter; stroke-miterlimit: 4; stroke-opacity: 1; stroke-dasharray: none; fill: rgb(126, 184, 255); stroke: rgb(126, 184, 255);"/>
    <path id="path3501" d="m 1537.3805,2254.8743 54.0702,1.8588" style="stroke-width: 4; stroke-linecap: butt; stroke-linejoin: miter; stroke-miterlimit: 4; stroke-opacity: 1; stroke-dasharray: none; fill: rgb(126, 184, 255); stroke: rgb(126, 184, 255);"/>
    <path id="path3503" d="m 1627.172,2298.5261 -34.2562,-41.9729" style="stroke-width: 4; stroke-linecap: butt; stroke-linejoin: miter; stroke-miterlimit: 4; stroke-opacity: 1; stroke-dasharray: none; fill: rgb(126, 184, 255); stroke: rgb(126, 184, 255);"/>
    <path id="path3505" d="m 1635.4744,2328.207 -9.0001,-30.1006" style="stroke-width: 4; stroke-linecap: butt; stroke-linejoin: miter; stroke-miterlimit: 4; stroke-opacity: 1; stroke-dasharray: none; fill: rgb(126, 184, 255); stroke: rgb(126, 184, 255);"/>
    <path id="path3507" d="m 1589.4972,2272.2631 3.2093,-15.2902" style="stroke-width: 4; stroke-linecap: butt; stroke-linejoin: miter; stroke-miterlimit: 4; stroke-opacity: 1; stroke-dasharray: none; fill: rgb(126, 184, 255); stroke: rgb(126, 184, 255);"/>
    <path id="path3509" d="m 1503.6825,2351.2305 -14.1629,-2.6983" style="stroke-width: 4; stroke-linecap: butt; stroke-linejoin: miter; stroke-miterlimit: 4; stroke-opacity: 1; stroke-dasharray: none; fill: rgb(126, 184, 255); stroke: rgb(126, 184, 255);"/>
    <path id="path3511" d="m 1526.985,2385.4084 46.7446,-11.4526" style="stroke-width: 2; stroke-linecap: butt; stroke-linejoin: miter; stroke-miterlimit: 4; stroke-opacity: 1; stroke-dasharray: none; fill: rgb(126, 184, 255); stroke: rgb(126, 184, 255);"/>
    <path id="path3513" d="m 1574.9157,2373.8958 33.6282,7.2554" style="stroke-width: 2; stroke-linecap: butt; stroke-linejoin: miter; stroke-miterlimit: 4; stroke-opacity: 1; stroke-dasharray: none; fill: rgb(126, 184, 255); stroke: rgb(126, 184, 255);"/>
    <path id="path3515" d="m 1492.5121,2295.941 61.203,-6.8478" style="stroke-width: 2; stroke-linecap: butt; stroke-linejoin: miter; stroke-miterlimit: 4; stroke-opacity: 1; stroke-dasharray: none; fill: rgb(126, 184, 255); stroke: rgb(126, 184, 255);"/>
    <path id="path3517" d="m 1553.7151,2287.7387 36.4241,-13.5452" style="stroke-width: 2; stroke-linecap: butt; stroke-linejoin: miter; stroke-miterlimit: 4; stroke-opacity: 1; stroke-dasharray: none; fill: rgb(126, 184, 255); stroke: rgb(126, 184, 255);"/>
    <path transform="matrix(0.6234843,0,0,0.6234843,726.86911,1170.9368)" d="m 1332.2546,1792.4095 a 7.3256478,7.3256478 0 0 1 -7.3256,7.3257 7.3256478,7.3256478 0 0 1 -7.3257,-7.3257 7.3256478,7.3256478 0 0 1 7.3257,-7.3256 7.3256478,7.3256478 0 0 1 7.3256,7.3256 z" id="path3519" style="opacity: 0.99; fill-opacity: 1; fill: rgb(126, 184, 255); stroke: rgb(126, 184, 255);"/>
    <path style="opacity: 0.99; fill-opacity: 1; fill: rgb(126, 184, 255); stroke: rgb(126, 184, 255);" id="path3521" d="m 1332.2546,1792.4095 a 7.3256478,7.3256478 0 0 1 -7.3256,7.3257 7.3256478,7.3256478 0 0 1 -7.3257,-7.3257 7.3256478,7.3256478 0 0 1 7.3257,-7.3256 7.3256478,7.3256478 0 0 1 7.3256,7.3256 z" transform="matrix(0.5833906,0,0,0.5833906,837.2333,1298.2147)"/>
    <path id="path3523" d="m 1609.6576,2343.739 16.404,-46.0639" style="stroke-width: 2; stroke-linecap: butt; stroke-linejoin: miter; stroke-miterlimit: 4; stroke-opacity: 1; stroke-dasharray: none; fill: rgb(126, 184, 255); stroke: rgb(126, 184, 255);"/>
    <path id="path3525" d="m 1609.4298,2381.481 0.5696,-38.77" style="stroke-width: 2; stroke-linecap: butt; stroke-linejoin: miter; stroke-miterlimit: 4; stroke-opacity: 1; stroke-dasharray: none; fill: rgb(126, 184, 255); stroke: rgb(126, 184, 255);"/>
    <path style="stroke-width: 2; stroke-linecap: butt; stroke-linejoin: miter; stroke-miterlimit: 4; stroke-opacity: 1; stroke-dasharray: none; fill: rgb(126, 184, 255); stroke: rgb(126, 184, 255);" d="m 1502.1919,2350.0723 23.4339,-35.9573" id="path3527"/>
    <path style="stroke-width: 2; stroke-linecap: butt; stroke-linejoin: miter; stroke-miterlimit: 4; stroke-opacity: 1; stroke-dasharray: none; fill: rgb(126, 184, 255); stroke: rgb(126, 184, 255);" d="M 1537.8572,2255.3651 1524.94,2314.115" id="path3529"/>
    <svg version="1.1" baseProfile="full" id="svg-1" width="8in" height="8in" viewBox="0 0 1 1" preserveAspectRatio="none" transform="matrix(989.721375, 0, 0, 989.721375, 1581.213, 2297.417146)"/>
    <svg version="1.1" baseProfile="full" id="svg-2" width="8in" height="8in" viewBox="0 0 1 1" preserveAspectRatio="none" transform="matrix(989.721375, 0, 0, 989.721375, 1581.213, 2297.417146)"/>
  </g>
</svg>